<svg width="1728" height="158" viewBox="0 0 1728 158" fill="none" xmlns="http://www.w3.org/2000/svg">
<line x1="2" y1="-2" x2="34" y2="-2" transform="matrix(1 0 0 -1 1313.18 76)" stroke="#00FFFF" stroke-width="4" stroke-linecap="square"/>
<line x1="2" y1="-2" x2="41" y2="-2" transform="matrix(-0.707107 0.707107 0.707107 0.707107 1380.59 50)" stroke="#00FFFF" stroke-width="4" stroke-linecap="round"/>
<line x1="1285.01" y1="50" x2="1312.59" y2="77.5772" stroke="#00FFFF" stroke-width="4" stroke-linecap="round"/>
<line x1="1377.76" y1="106.021" x2="1350.18" y2="78.4438" stroke="#00FFFF" stroke-width="4" stroke-linecap="round"/>
<line x1="2" y1="-2" x2="41" y2="-2" transform="matrix(0.707107 -0.707107 -0.707107 -0.707107 1282.18 106.021)" stroke="#00FFFF" stroke-width="4" stroke-linecap="round"/>
<line x1="2" y1="-2" x2="34" y2="-2" transform="matrix(1 0 0 -1 379.184 76)" stroke="#00FFFF" stroke-width="4" stroke-linecap="square"/>
<line x1="2" y1="-2" x2="41" y2="-2" transform="matrix(-0.707107 0.707107 0.707107 0.707107 445.589 50)" stroke="#00FFFF" stroke-width="4" stroke-linecap="round"/>
<line x1="351.012" y1="50" x2="378.589" y2="77.5772" stroke="#00FFFF" stroke-width="4" stroke-linecap="round"/>
<line x1="442.761" y1="106.021" x2="415.184" y2="78.4438" stroke="#00FFFF" stroke-width="4" stroke-linecap="round"/>
<line x1="2" y1="-2" x2="41" y2="-2" transform="matrix(0.707107 -0.707107 -0.707107 -0.707107 348.184 106.021)" stroke="#00FFFF" stroke-width="4" stroke-linecap="round"/>
<line x1="2" y1="-2" x2="292" y2="-2" transform="matrix(-1 0 0 1 1671.18 52)" stroke="#00FFFF" stroke-width="4" stroke-linecap="square"/>
<line x1="2" y1="-2" x2="292" y2="-2" transform="matrix(-1 0 0 1 1285.18 52)" stroke="#00FFFF" stroke-width="4" stroke-linecap="square"/>
<line x1="59" y1="50" x2="349" y2="50" stroke="#00FFFF" stroke-width="4" stroke-linecap="square"/>
<line x1="445.184" y1="50" x2="735.184" y2="50" stroke="#00FFFF" stroke-width="4" stroke-linecap="square"/>
<line x1="2" y1="-2" x2="292" y2="-2" transform="matrix(-1 0 0 1 1671.18 108)" stroke="#00FFFF" stroke-width="4" stroke-linecap="square"/>
<line x1="2" y1="-2" x2="292" y2="-2" transform="matrix(-1 0 0 1 1285.18 108)" stroke="#00FFFF" stroke-width="4" stroke-linecap="square"/>
<line x1="59" y1="106" x2="349" y2="106" stroke="#00FFFF" stroke-width="4" stroke-linecap="square"/>
<line x1="445.184" y1="106" x2="735.184" y2="106" stroke="#00FFFF" stroke-width="4" stroke-linecap="square"/>
<line x1="1700.18" y1="78" x2="1726.18" y2="78" stroke="#00FFFF" stroke-width="4" stroke-linecap="round"/>
<line x1="2" y1="-2" x2="28" y2="-2" transform="matrix(-1 0 0 1 30 80)" stroke="#00FFFF" stroke-width="4" stroke-linecap="round"/>
<line x1="2" y1="-2" x2="28" y2="-2" transform="matrix(-1 0 0 1 964.184 80)" stroke="#00FFFF" stroke-width="4" stroke-linecap="round"/>
<line x1="766" y1="78" x2="792" y2="78" stroke="#00FFFF" stroke-width="4" stroke-linecap="round"/>
<line x1="2" y1="-2" x2="54.1" y2="-2" transform="matrix(-0.707107 0.707107 0.707107 0.707107 974.184 26)" stroke="#00FFFF" stroke-width="4" stroke-linecap="round"/>
<line x1="756.828" y1="26" x2="793.598" y2="62.7696" stroke="#00FFFF" stroke-width="4" stroke-linecap="round"/>
<line x1="971.355" y1="130.598" x2="934.444" y2="93.6869" stroke="#00FFFF" stroke-width="4" stroke-linecap="round"/>
<line x1="2" y1="-2" x2="54" y2="-2" transform="matrix(0.707107 -0.707107 -0.707107 -0.707107 754 130.598)" stroke="#00FFFF" stroke-width="4" stroke-linecap="round"/>
<line x1="1671.01" y1="50" x2="1698.59" y2="77.5772" stroke="#00FFFF" stroke-width="4" stroke-linecap="round"/>
<line x1="2" y1="-2" x2="41" y2="-2" transform="matrix(-0.707107 0.707107 0.707107 0.707107 60 50)" stroke="#00FFFF" stroke-width="4" stroke-linecap="round"/>
<line x1="1671.01" y1="2" x2="1726.17" y2="57.1543" stroke="#00FFFF" stroke-width="4" stroke-linecap="round"/>
<line x1="2" y1="-2" x2="80" y2="-2" transform="matrix(-0.707107 0.707107 0.707107 0.707107 60 2)" stroke="#00FFFF" stroke-width="4" stroke-linecap="round"/>
<line x1="2" y1="-2" x2="80" y2="-2" transform="matrix(0.707107 -0.707107 -0.707107 -0.707107 1668.18 154.598)" stroke="#00FFFF" stroke-width="4" stroke-linecap="round"/>
<line x1="57.1716" y1="154.598" x2="2.01725" y2="99.4436" stroke="#00FFFF" stroke-width="4" stroke-linecap="round"/>
<line x1="2" y1="-2" x2="41" y2="-2" transform="matrix(-0.707107 0.707107 0.707107 0.707107 994.184 50)" stroke="#00FFFF" stroke-width="4" stroke-linecap="round"/>
<line x1="736.828" y1="50" x2="764.406" y2="77.5772" stroke="#00FFFF" stroke-width="4" stroke-linecap="round"/>
<line x1="2" y1="-2" x2="721" y2="-2" transform="matrix(-1 0 0 1 1694.18 28)" stroke="#00FFFF" stroke-width="4" stroke-linecap="square"/>
<line x1="36" y1="26" x2="755" y2="26" stroke="#00FFFF" stroke-width="4" stroke-linecap="square"/>
<line x1="1692.18" y1="130.598" x2="973.184" y2="130.598" stroke="#00FFFF" stroke-width="4" stroke-linecap="square"/>
<line x1="2" y1="-2" x2="721" y2="-2" transform="matrix(1 0 0 -1 34 128.598)" stroke="#00FFFF" stroke-width="4" stroke-linecap="square"/>
<line x1="2" y1="-2" x2="41" y2="-2" transform="matrix(0.707107 -0.707107 -0.707107 -0.707107 1668.18 106.021)" stroke="#00FFFF" stroke-width="4" stroke-linecap="round"/>
<line x1="57.1716" y1="106.021" x2="29.5944" y2="78.4438" stroke="#00FFFF" stroke-width="4" stroke-linecap="round"/>
<line x1="991.355" y1="106.021" x2="963.778" y2="78.4438" stroke="#00FFFF" stroke-width="4" stroke-linecap="round"/>
<line x1="2" y1="-2" x2="41" y2="-2" transform="matrix(0.707107 -0.707107 -0.707107 -0.707107 734 106.021)" stroke="#00FFFF" stroke-width="4" stroke-linecap="round"/>
<line x1="2" y1="-2" x2="52.1" y2="-2" transform="matrix(-0.707107 0.707107 0.707107 0.707107 962.184 2)" stroke="#00FFFF" stroke-width="4" stroke-linecap="round"/>
<line x1="768.828" y1="2" x2="804.184" y2="37.3553" stroke="#00FFFF" stroke-width="4" stroke-linecap="round"/>
<line x1="959.355" y1="154.598" x2="923.646" y2="118.889" stroke="#00FFFF" stroke-width="4" stroke-linecap="round"/>
<line x1="2" y1="-2" x2="52.3" y2="-2" transform="matrix(0.707107 -0.707107 -0.707107 -0.707107 766 154.598)" stroke="#00FFFF" stroke-width="4" stroke-linecap="round"/>
<line x1="2" y1="-2" x2="710" y2="-2" transform="matrix(-1 0 0 1 1671.18 4)" stroke="#00FFFF" stroke-width="4" stroke-linecap="square"/>
<line x1="59" y1="2" x2="767" y2="2" stroke="#00FFFF" stroke-width="4" stroke-linecap="square"/>
<line x1="1669.18" y1="154.598" x2="961.184" y2="154.598" stroke="#00FFFF" stroke-width="4" stroke-linecap="square"/>
<line x1="2" y1="-2" x2="710" y2="-2" transform="matrix(1 0 0 -1 57 152.598)" stroke="#00FFFF" stroke-width="4" stroke-linecap="square"/>
</svg>
